<?xml version="1.0" standalone="no"?>
<!DOCTYPE svg PUBLIC "-//W3C//DTD SVG 20010904//EN"
 "http://www.w3.org/TR/2001/REC-SVG-20010904/DTD/svg10.dtd">
<svg version="1.0" xmlns="http://www.w3.org/2000/svg"
 width="100.000000pt" height="100.000000pt" viewBox="0 0 100.000000 100.000000"
 preserveAspectRatio="xMidYMid meet">
<metadata>
Created by potrace 1.11, written by Peter Selinger 2001-2013
</metadata>
<g transform="translate(0.000000,100.000000) scale(0.100000,-0.100000)"
fill="#000000" stroke="none">
<path d="M312 813 c-150 -151 -181 -187 -171 -199 9 -11 9 -17 -1 -29 -10 -12
-10 -18 0 -30 9 -10 9 -19 2 -28 -11 -14 10 -41 24 -29 4 4 5 2 1 -3 -6 -12
191 -211 205 -207 5 1 7 -2 4 -6 -7 -11 28 -44 37 -37 4 3 5 2 3 -1 -6 -8 74
-94 87 -94 19 0 298 290 291 302 -5 7 -3 8 6 3 8 -5 24 5 46 29 27 30 30 37
17 44 -13 8 -13 10 0 24 12 12 13 18 4 27 -9 9 -9 16 0 30 10 16 -12 41 -175
204 -103 103 -189 187 -192 186 -3 0 -87 -84 -188 -186z"/>
<path d="M686 142 c-3 -5 1 -9 9 -9 8 0 15 4 15 9 0 4 -4 8 -9 8 -6 0 -12 -4
-15 -8z"/>
<path d="M110 131 c-50 -14 -53 -103 -3 -122 29 -11 74 0 81 19 2 8 -5 7 -23
-2 -34 -18 -64 -10 -77 20 -24 52 25 95 76 68 14 -7 26 -9 26 -5 0 7 -47 33
-53 30 -1 -1 -13 -4 -27 -8z"/>
<path d="M530 117 c0 -20 -4 -23 -30 -19 -36 5 -60 -12 -60 -43 0 -34 33 -58
69 -50 31 7 31 7 31 71 0 35 -2 64 -5 64 -3 0 -5 -10 -5 -23z m-10 -46 c12
-23 5 -47 -16 -55 -34 -13 -62 21 -44 55 14 25 46 25 60 0z"/>
<path d="M221 81 c-24 -44 -2 -75 55 -76 34 -2 34 -1 34 45 l0 46 -39 2 c-31
2 -42 -2 -50 -17z m69 -6 c15 -18 5 -51 -18 -60 -25 -9 -55 31 -42 56 13 23
43 25 60 4z"/>
<path d="M334 49 c1 -53 16 -57 16 -3 0 22 6 37 15 40 24 10 45 -15 41 -47 -2
-16 0 -32 5 -35 14 -8 10 72 -4 84 -7 6 -27 10 -44 10 -30 -1 -31 -2 -29 -49z"/>
<path d="M571 81 c-6 -11 -11 -26 -11 -34 0 -24 34 -47 68 -44 31 2 32 3 32
48 l0 45 -39 2 c-31 2 -42 -2 -50 -17z m69 -6 c14 -17 5 -51 -15 -59 -35 -13
-63 21 -45 55 13 23 43 25 60 4z"/>
<path d="M730 53 c0 -24 4 -43 9 -43 5 0 8 14 7 31 -1 40 28 63 48 37 7 -10
12 -31 11 -47 -1 -17 2 -28 7 -25 11 7 10 51 -3 75 -7 14 -19 19 -45 17 -33
-2 -34 -3 -34 -45z"/>
<path d="M853 88 c-21 -28 -22 -49 -3 -68 22 -22 37 -25 60 -10 9 6 17 5 22
-3 4 -7 8 11 8 39 l0 50 -39 2 c-22 2 -42 -3 -48 -10z m65 -15 c12 -23 5 -41
-20 -54 -36 -19 -66 29 -36 59 17 17 46 15 56 -5z"/>
</g>
</svg>
